<?xml version="1.0" encoding="UTF-8"?>
<svg id="Layer_2" data-name="Layer 2" xmlns="http://www.w3.org/2000/svg" xmlns:xlink="http://www.w3.org/1999/xlink" viewBox="0 0 135 135">
  <defs>
    <style>
      .cls-1 {
        fill: #fff;
        opacity: .9;
      }

      .cls-2 {
        fill: url(#linear-gradient);
      }
    </style>
    <linearGradient id="linear-gradient" x1="67.5" y1="16.51" x2="67.5" y2="130.18" gradientUnits="userSpaceOnUse">
      <stop offset="0" stop-color="#f8a01d"/>
      <stop offset=".47" stop-color="#f26e23"/>
      <stop offset="1" stop-color="#ef5826"/>
    </linearGradient>
  </defs>
  <g id="Graphic_Elements" data-name="Graphic Elements">
    <g>
      <circle class="cls-2" cx="67.5" cy="67.5" r="67.5"/>
      <path class="cls-1" d="M12.68,67.45l-.68,6.15,.68,6.15c0,.34,.34,.34,.34,.34,.34,0,.34-.34,.34-.34l1.02-6.15-1.02-6.15c0-.34-.34-.34-.34-.34,0,0-.34,0-.34,.34m4.1-3.76l-1.02,9.9,1.02,9.9c0,.34,.34,.34,.34,.34,.34,0,.34-.34,.34-.34l1.37-9.9-1.37-9.9c0-.34-.34-.34-.34-.34h0l-.34,.34m12.98-1.37l-.68,11.27,.68,11.95c0,.34,.34,.68,.68,.68s.68-.34,.68-.68l1.37-11.95-1.02-11.27c0-.34-.34-.68-.68-.68-.68,0-1.02,.34-1.02,.68m-8.54-.68l-1.02,11.95,1.02,11.27c0,.34,.34,.68,.68,.68,0,0,.34-.34,.34-.68l1.02-11.27-1.02-11.95c0-.34-.34-.68-.68-.68,0,.34-.34,.34-.34,.68m4.1-.34l-1.02,12.3,1.02,11.61c0,.34,.34,.68,.68,.68s.68-.34,.68-.68l1.02-11.61-1.02-12.3c0-.34-.34-.68-.68-.68s-.34,.34-.68,.68m8.88-6.15l-1.02,18.44,1.02,11.95c0,.34,.34,.68,.68,.68,.68,0,1.02-.34,1.02-.68l1.02-11.95-1.02-18.44c0-.34-.34-.68-.68-.68-.68,0-1.02,.34-1.02,.68m4.44-4.1l-.68,22.54,.68,11.95c0,.68,.34,1.02,1.02,1.02,.34,0,1.02-.34,1.02-1.02l1.02-11.95-1.02-22.54c0-.68-.34-1.02-1.02-1.02s-1.02,.34-1.02,1.02m18.1-1.02l-.68,23.57,.68,11.27c0,.68,.68,1.37,1.37,1.37s1.37-.68,1.37-1.37l.68-11.27-.68-23.91c0-.68-.68-1.37-1.37-1.37-1.02,.34-1.37,.68-1.37,1.71m-13.66-1.02l-.68,24.59,.68,11.61c0,.68,.34,1.02,1.02,1.02s1.02-.34,1.02-1.02l.68-11.61-.68-24.59c0-.68-.34-1.02-1.02-1.02s-1.02,.68-1.02,1.02m8.88,0l-.68,24.59,.68,11.61c0,.68,.68,1.37,1.37,1.37s1.37-.68,1.37-1.37l.68-11.61-.68-24.59c0-.68-.68-1.37-1.37-1.37s-1.37,.68-1.37,1.37m-4.44-.68l-.68,25.27,.68,11.61c0,.68,.34,1.02,1.02,1.02s1.02-.34,1.02-1.02l.68-11.61-.68-25.27c0-.68-.68-1.02-1.02-1.02s-1.02,.34-1.02,1.02m13.66-3.07l-.68,28.35,.68,11.27c0,.68,.68,1.37,1.37,1.37s1.37-.68,1.37-1.37l.68-11.27-.68-28.35c0-.68-.68-1.37-1.37-1.37s-1.37,.68-1.37,1.37m4.78-2.39l-.68,30.74,.68,11.27c0,.68,.68,1.37,1.37,1.37s1.37-.68,1.37-1.37l.68-11.27-.68-30.74c0-.68-.68-1.37-1.37-1.37h-.34c-.68,0-1.02,.68-1.02,1.37m5.46-3.07c-1.02,.34-1.37,.68-1.37,1.71v43.38c0,.68,.68,1.37,1.37,1.71h37.91c7.51,0,13.66-6.15,13.66-13.66s-6.15-13.66-13.66-13.66c-1.71,0-3.76,.34-5.12,1.02-1.02-12.3-11.27-21.86-23.91-21.86h-1.71c-2.39,0-4.78,.68-7.17,1.37"/>
    </g>
  </g>
</svg>