<svg xmlns="http://www.w3.org/2000/svg" width="44" height="44" viewBox="0 0 44 44">
    <defs>
        <linearGradient id="a" x1="50%" x2="50%" y1="0%" y2="100%">
            <stop offset="0%" stop-color="#E4F4F9"/>
            <stop offset="100%" stop-color="#ADD2DE"/>
        </linearGradient>
    </defs>
    <g fill="none" fill-rule="evenodd">
        <path fill="#003648" d="M15.476 26.534h-5.209a1.29 1.29 0 0 0-1.287 1.291 1.29 1.29 0 0 0 1.287 1.292h5.21a1.29 1.29 0 0 0 1.286-1.292 1.29 1.29 0 0 0-1.287-1.291M16.733 21.748h-6.436A1.29 1.29 0 0 0 9.01 23.04a1.29 1.29 0 0 0 1.287 1.292h6.436a1.29 1.29 0 0 0 1.287-1.292 1.29 1.29 0 0 0-1.287-1.292"/>
        <path fill="url(#a)" d="M26.523 14.237a3.868 3.868 0 0 1-3.862-3.875 3.868 3.868 0 0 1 3.862-3.875 3.868 3.868 0 0 1 3.861 3.875 3.868 3.868 0 0 1-3.861 3.875zm7.551 7.23c.183 1.139-.683 2.175-1.832 2.175H20.804c-1.15 0-2.015-1.036-1.833-2.175.574-3.583 2.538-6.476 5.099-7.623a4.99 4.99 0 0 0 2.453.642 4.99 4.99 0 0 0 2.453-.642c2.56 1.147 4.524 4.04 5.098 7.623z" transform="translate(0 6)"/>
        <path stroke="#003648" stroke-width="2" d="M27.523 20.237a3.868 3.868 0 0 0 3.861-3.875 3.868 3.868 0 0 0-3.861-3.875 3.868 3.868 0 0 0-3.862 3.875 3.868 3.868 0 0 0 3.862 3.875"/>
        <path stroke="#003648" stroke-width="2" d="M35.074 27.467c-.574-3.583-2.537-6.476-5.098-7.623a4.99 4.99 0 0 1-2.453.642 4.99 4.99 0 0 1-2.453-.642c-2.561 1.147-4.525 4.04-5.099 7.623-.182 1.139.683 2.175 1.833 2.175h11.438c1.15 0 2.015-1.036 1.832-2.175"/>
        <path fill="#003648" d="M20.595 18.256a1.29 1.29 0 0 0-1.287-1.292h-5.085l-.064-.003h-3.862a1.29 1.29 0 0 0-1.287 1.292 1.29 1.29 0 0 0 1.287 1.291h2.51c.022.002.043.004.065.004h6.436a1.29 1.29 0 0 0 1.287-1.292M10.297 14.762h1.288l.043-.002h7.678a1.29 1.29 0 0 0 1.287-1.293 1.29 1.29 0 0 0-1.287-1.291H10.94l-.043.002h-.6A1.29 1.29 0 0 0 9.01 13.47a1.29 1.29 0 0 0 1.287 1.292"/>
        <path fill="#003648" d="M24.54 33.434h-5.316c-.664 0-1.204-.54-1.204-1.208H5.15V8.973h33.466v23.251H25.743c0 .668-.539 1.209-1.204 1.209zm19.224-1.208h-2.575.001V8.942a2.548 2.548 0 0 0-2.543-2.552H5.119a2.548 2.548 0 0 0-2.544 2.552v23.283H0v1.767a2.02 2.02 0 0 0 2.017 2.025h39.73a2.021 2.021 0 0 0 2.017-2.025v-1.767z"/>
    </g>
</svg>
