<?xml version="1.0" encoding="UTF-8"?>
<svg id="Layer_2" data-name="Layer 2" xmlns="http://www.w3.org/2000/svg" xmlns:xlink="http://www.w3.org/1999/xlink" viewBox="0 0 130.12 130.12">
  <defs>
    <style>
      .cls-1 {
        fill: url(#radial-gradient);
      }

      .cls-1, .cls-2 {
        fill-rule: evenodd;
      }

      .cls-3, .cls-2 {
        fill: #fff;
      }
    </style>
    <radialGradient id="radial-gradient" cx="56.68" cy="830.13" fx="56.68" fy="830.13" r=".13" gradientTransform="translate(-45305.74 664218.45) scale(800 -800)" gradientUnits="userSpaceOnUse">
      <stop offset="0" stop-color="#5697fb"/>
      <stop offset=".61" stop-color="#8936f9"/>
      <stop offset=".93" stop-color="#dd537e"/>
      <stop offset="1" stop-color="#e06f62"/>
    </radialGradient>
  </defs>
  <g id="Graphic_Elements" data-name="Graphic Elements">
    <g>
      <circle class="cls-3" cx="65.06" cy="65.06" r="65.06"/>
      <g id="logo">
        <path id="bubble" class="cls-1" d="M65.06,16.87c-27.69,0-49.16,20.28-49.16,47.68,0,14.33,5.87,26.71,15.44,35.27,.8,.72,1.29,1.73,1.32,2.8l.27,8.74c.09,2.79,2.97,4.6,5.52,3.48l9.76-4.31c.83-.36,1.75-.43,2.63-.19,4.48,1.23,9.26,1.89,14.23,1.89,27.69,0,49.16-20.28,49.16-47.68s-21.46-47.68-49.16-47.68Z"/>
        <path id="bolt" class="cls-2" d="M35.54,78.49l14.44-22.91c2.3-3.64,7.22-4.55,10.66-1.97l11.48,8.61c1.05,.79,2.5,.79,3.55-.01l15.51-11.77c2.07-1.57,4.77,.91,3.39,3.1l-14.44,22.91c-2.3,3.64-7.22,4.55-10.66,1.97l-11.48-8.61c-1.05-.79-2.5-.79-3.55,.01l-15.51,11.77c-2.07,1.57-4.77-.91-3.39-3.1Z"/>
      </g>
    </g>
  </g>
</svg>