<?xml version="1.0" encoding="UTF-8"?>
<svg id="Layer_2" data-name="Layer 2" xmlns="http://www.w3.org/2000/svg" xmlns:xlink="http://www.w3.org/1999/xlink" viewBox="0 0 135 135">
  <defs>
    <style>
      .cls-1 {
        fill: url(#linear-gradient-2);
      }

      .cls-2, .cls-3 {
        fill: #fff;
      }

      .cls-3, .cls-4, .cls-5 {
        fill-rule: evenodd;
      }

      .cls-4 {
        opacity: .1;
      }

      .cls-4, .cls-5 {
        isolation: isolate;
      }

      .cls-5 {
        opacity: .05;
      }

      .cls-6 {
        fill: url(#linear-gradient-3);
      }

      .cls-7 {
        fill: url(#linear-gradient);
      }
    </style>
    <linearGradient id="linear-gradient" x1="-904.33" y1="353.36" x2="-904.08" y2="351.78" gradientTransform="translate(30189.09 11800.64) scale(33.33 -33.33)" gradientUnits="userSpaceOnUse">
      <stop offset=".01" stop-color="#00b7f0"/>
      <stop offset=".34" stop-color="#009de5"/>
      <stop offset=".76" stop-color="#0082d9"/>
      <stop offset="1" stop-color="#0078d4"/>
    </linearGradient>
    <linearGradient id="linear-gradient-2" x1="-903.78" y1="351.02" x2="-902.39" y2="351.82" gradientTransform="translate(30189.09 11800.64) scale(33.33 -33.33)" gradientUnits="userSpaceOnUse">
      <stop offset="0" stop-color="#0078d4"/>
      <stop offset=".37" stop-color="#007ad5"/>
      <stop offset=".57" stop-color="#0082d9"/>
      <stop offset=".73" stop-color="#0090df"/>
      <stop offset=".88" stop-color="#00a3e7"/>
      <stop offset="1" stop-color="#00bcf2"/>
    </linearGradient>
    <linearGradient id="linear-gradient-3" x1="-904.15" y1="352.85" x2="-902.87" y2="350.65" gradientTransform="translate(30189.09 11800.64) scale(33.33 -33.33)" gradientUnits="userSpaceOnUse">
      <stop offset="0" stop-color="#00b7f0"/>
      <stop offset="1" stop-color="#007cc1"/>
    </linearGradient>
  </defs>
  <g id="Graphic_Elements" data-name="Graphic Elements">
    <g>
      <circle class="cls-2" cx="67.5" cy="67.5" r="67.5"/>
      <g>
        <path class="cls-7" d="M75.63,48.31c0,14.76-12.01,26.73-26.81,26.73h0c-14.81,0-26.81-11.97-26.81-26.73h0c0-14.76,12.01-26.73,26.81-26.73h0c14.81,0,26.81,11.97,26.81,26.73h0"/>
        <path class="cls-1" d="M113,86.69c0,14.77-12.01,26.74-26.82,26.74s-26.82-11.97-26.82-26.74,12.01-26.74,26.82-26.74,26.82,11.97,26.82,26.74h0"/>
        <path class="cls-5" d="M22.1,50.59c1.22,14.76,14.17,25.73,28.92,24.52,14.76-1.22,25.73-14.17,24.52-28.92-1.04-12.64-10.8-22.82-23.39-24.4-13.82,4.62-24.85,15.19-30.05,28.81h0Z"/>
        <path class="cls-5" d="M112.93,84.77c-1.01-14.78-13.81-25.94-28.59-24.92-14.78,1.01-25.94,13.81-24.92,28.59,.9,13.14,11.21,23.69,24.33,24.88,13.44-4.78,24.1-15.22,29.18-28.55h0Z"/>
        <path class="cls-4" d="M23.35,56.7c4.6,14.07,19.73,21.75,33.8,17.15,14.07-4.6,21.75-19.73,17.15-33.8-2.53-7.74-8.44-13.91-16.06-16.77-17.06,3.55-30.61,16.53-34.89,33.42h0Z"/>
        <path class="cls-4" d="M111.71,78.48c-4.49-14.11-19.57-21.91-33.68-17.42-14.11,4.49-21.91,19.57-17.42,33.68,2.57,8.08,8.81,14.47,16.83,17.22,16.84-3.78,30.1-16.74,34.26-33.49h0Z"/>
        <path class="cls-4" d="M24.34,59.24c6,13.53,21.84,19.63,35.36,13.62s19.63-21.84,13.62-35.36c-2.53-5.71-6.98-10.35-12.57-13.13-18.25,2.84-32.78,16.76-36.41,34.87Z"/>
        <path class="cls-4" d="M110.72,75.9c-5.92-13.57-21.72-19.77-35.29-13.84-13.57,5.92-19.77,21.72-13.84,35.29,2.62,6,7.34,10.83,13.28,13.59,18.08-3.07,32.37-17.03,35.86-35.03h0Z"/>
        <path class="cls-6" d="M109.98,67.7c0,23.38-19.01,42.33-42.47,42.33h0c-23.46,0-42.47-18.95-42.47-42.33h0c0-23.38,19.01-42.33,42.47-42.33h0c23.46,0,42.47,18.95,42.47,42.33h0"/>
        <path class="cls-3" d="M55.56,66.23c-1.72-1.13-3.15-2.64-4.18-4.41-1-1.87-1.49-3.98-1.43-6.1-.08-2.7,.84-5.32,2.58-7.38,1.81-2.07,4.13-3.62,6.74-4.5,2.83-1,5.81-1.5,8.82-1.48,1.96-.02,3.93,.13,5.87,.45,1.39,.21,2.75,.57,4.07,1.05,1.21,.41,2.3,1.11,3.18,2.03,.65,.76,1,1.73,.98,2.73,.05,1.05-.33,2.07-1.03,2.85-.67,.72-1.62,1.11-2.6,1.08-.67,0-1.33-.15-1.93-.43-1.49-.67-3.03-1.23-4.6-1.68-1.45-.38-2.94-.57-4.43-.55-1.95-.07-3.88,.42-5.55,1.42-1.44,.88-2.29,2.46-2.22,4.15-.01,1.09,.4,2.13,1.15,2.92,.89,.92,1.94,1.68,3.1,2.22,1.3,.65,3.24,1.5,5.82,2.57,.29,.09,.56,.2,.83,.33,2.52,1,4.93,2.23,7.2,3.7,1.8,1.17,3.31,2.72,4.43,4.55,1.11,1.92,1.66,4.11,1.6,6.32,.09,2.71-.68,5.38-2.22,7.62-1.56,2.12-3.72,3.72-6.2,4.6-2.99,1.07-6.15,1.58-9.32,1.52-4.36,.15-8.7-.67-12.7-2.4-1.02-.46-1.92-1.15-2.61-2.03-.58-.81-.87-1.78-.85-2.77-.06-1.06,.35-2.09,1.12-2.82,.79-.7,1.83-1.06,2.88-1.02,1.18,.02,2.33,.31,3.37,.87,1.29,.64,2.31,1.13,3.05,1.45,.85,.36,1.73,.63,2.63,.83,1.11,.24,2.25,.36,3.38,.35,2.01,.14,4.01-.39,5.69-1.52,1.27-.99,1.98-2.54,1.92-4.15,0-1.13-.43-2.21-1.2-3.03-1.02-1.05-2.22-1.92-3.53-2.57-1.56-.82-3.75-1.82-6.57-3-2.52-1.01-4.94-2.26-7.22-3.75"/>
      </g>
    </g>
  </g>
</svg>