<svg xmlns="http://www.w3.org/2000/svg" width="44" height="44" viewBox="0 0 44 44">
    <defs>
        <linearGradient id="a" x1="50%" x2="50%" y1="0%" y2="100%">
            <stop offset="0%" stop-color="#E4F4F9"/>
            <stop offset="100%" stop-color="#ADD2DE"/>
        </linearGradient>
    </defs>
    <g fill="none" fill-rule="evenodd">
        <path fill="url(#a)" d="M36.028 29.197a.811.811 0 0 1-.813.807H2.813A.811.811 0 0 1 2 29.197v-18.39c0-.445.365-.807.813-.807h32.402c.448 0 .813.362.813.807v18.39z" transform="translate(2 5)"/>
        <path fill="#003648" d="M38.465 33.707a.811.811 0 0 1-.813.807H5.25a.811.811 0 0 1-.814-.807v-18.39c0-.445.366-.807.814-.807h32.4c.45 0 .814.362.814.807v18.39zM13.894 7.853a.03.03 0 0 1 .031-.031h15.053c.017 0 .031.014.031.031v4.238H13.894V7.853zm23.758 4.238h-6.206V7.853c0-1.35-1.107-2.45-2.468-2.45H13.925a2.462 2.462 0 0 0-2.468 2.45v4.238H5.25C3.458 12.091 2 13.538 2 15.317v18.39c0 1.779 1.458 3.226 3.25 3.226h32.402c1.792 0 3.25-1.447 3.25-3.226v-18.39c0-1.779-1.458-3.226-3.25-3.226z"/>
        <path fill="#003648" d="M23.602 17.612l-.595-.161a.645.645 0 0 0-.523.052.682.682 0 0 0-.323.403L18.475 30.57a.642.642 0 0 0 .055.521.687.687 0 0 0 .41.32l.596.162a.653.653 0 0 0 .524-.052.682.682 0 0 0 .321-.404l3.688-12.664a.647.647 0 0 0-.057-.52.688.688 0 0 0-.41-.321M17.618 20.43c0-.18-.071-.346-.205-.48l-.494-.49a.676.676 0 0 0-.964 0l-4.61 4.573a.665.665 0 0 0 0 .957l4.609 4.573a.673.673 0 0 0 .965 0l.494-.49a.663.663 0 0 0 0-.957l-3.632-3.604 3.632-3.604a.664.664 0 0 0 .205-.479M26.948 19.46a.672.672 0 0 0-.964 0l-.495.492a.664.664 0 0 0 0 .956l3.632 3.604-3.632 3.604a.665.665 0 0 0 0 .957l.494.49a.673.673 0 0 0 .965 0l4.61-4.573a.664.664 0 0 0-.001-.957l-4.609-4.572z"/>
    </g>
</svg>
