<?xml version="1.0" encoding="UTF-8"?>
<svg id="Layer_2" data-name="Layer 2" xmlns="http://www.w3.org/2000/svg" viewBox="0 0 135 135">
  <defs>
    <style>
      .cls-1 {
        fill: #fff;
      }

      .cls-2 {
        fill: #fefb00;
      }
    </style>
  </defs>
  <g id="Graphic_Elements" data-name="Graphic Elements">
    <g>
      <circle class="cls-2" cx="67.5" cy="67.5" r="67.5"/>
      <g>
        <path d="M39.07,51.73c0-.25,0-.44,0-.63,.01-1.2,0-2.4,.04-3.6,.1-2.61,.36-5.21,.98-7.76,.83-3.39,2.31-6.44,4.46-9.19,3.82-4.9,8.8-8.02,14.75-9.66,3.15-.87,6.38-1.15,9.64-1.04,3.48,.12,6.86,.77,10.11,2.05,3.41,1.34,6.47,3.25,9.11,5.8,1.51,1.46,2.82,3.08,3.95,4.84,1.76,2.73,2.83,5.73,3.41,8.91,.49,2.66,.64,5.35,.66,8.06,0,.72,0,1.43,0,2.12,.15,.15,.27,.05,.38,.03,1.02-.21,2.04-.33,3.08-.28,1.37,.07,2.67,.39,3.87,1.05,2.13,1.18,3.47,2.97,4.02,5.33,.64,2.77-.01,5.26-1.76,7.47-.86,1.08-1.9,1.97-3.04,2.74-.94,.64-1.9,1.25-2.85,1.88-.39,.25-.78,.51-1.16,.76-.12,.08-.25,.16-.36,.25-.6,.47-.74,.88-.51,1.6,.07,.24,.19,.47,.3,.69,1.24,2.53,2.92,4.73,4.95,6.67,2.21,2.12,4.71,3.82,7.42,5.22,.73,.38,1.46,.75,2.18,1.15,.63,.35,1.21,.77,1.72,1.28,1.05,1.06,1.63,2.35,1.71,3.84,.07,1.28-.31,2.46-1,3.53-.76,1.17-1.74,2.11-2.93,2.83-.96,.58-1.96,1.07-2.98,1.51-1.07,.46-2.16,.83-3.28,1.15-.38,.11-.76,.24-1.14,.38-.43,.16-.74,.47-.93,.9-.11,.25-.22,.5-.32,.76-.95,2.45-2.73,3.94-5.27,4.54-.95,.22-1.91,.31-2.88,.36-1.07,.06-2.15,.08-3.22,.15-1.71,.11-3.39,.4-5.02,.92-.71,.22-1.37,.53-2.01,.91-.86,.5-1.7,1.01-2.55,1.53-1.48,.9-2.98,1.74-4.58,2.42-2.22,.94-4.53,1.56-6.94,1.84-2.1,.25-4.21,.27-6.31,.06-3.22-.32-6.27-1.23-9.15-2.71-1.18-.61-2.32-1.29-3.45-1.98-.49-.3-.98-.58-1.46-.89-1.43-.9-3-1.41-4.65-1.73-1.66-.33-3.34-.43-5.03-.49-1.12-.04-2.23-.09-3.34-.27-.84-.14-1.64-.37-2.4-.75-1.58-.78-2.7-1.99-3.39-3.6-.13-.31-.25-.63-.37-.94-.21-.54-.59-.92-1.14-1.11-.34-.11-.68-.22-1.02-.32-1.95-.56-3.83-1.3-5.6-2.28-1.17-.65-2.22-1.45-3.06-2.51-.6-.75-1.07-1.57-1.31-2.5-.5-2.01-.04-3.8,1.32-5.35,.45-.51,.99-.92,1.56-1.28,.61-.38,1.24-.71,1.88-1.03,2.31-1.14,4.49-2.5,6.48-4.15,2.35-1.93,4.35-4.17,5.86-6.82,.27-.47,.51-.97,.76-1.46,.15-.28,.23-.59,.27-.9,.05-.33-.05-.63-.27-.88-.21-.24-.47-.42-.74-.59-1.27-.83-2.54-1.66-3.81-2.5-.81-.53-1.57-1.14-2.27-1.82-1.05-1.03-1.9-2.2-2.41-3.59-1.16-3.1-.39-6.68,1.93-8.94,1.26-1.23,2.78-1.95,4.51-2.25,1.35-.23,2.69-.18,4.02,.12,.16,.04,.33,.07,.58,.12Z"/>
        <path class="cls-1" d="M90.75,51.62c-.02,1.86-.11,3.71-.25,5.56-.02,.32-.03,.63-.04,.95-.01,.69,.38,.97,1.07,.91,.25-.02,.5-.09,.74-.17,.67-.24,1.34-.49,2.01-.74,1.12-.43,2.24-.85,3.42-1.12,.79-.18,1.57-.28,2.38-.09,1.82,.42,2.76,2.23,2.06,3.96-.18,.46-.46,.85-.79,1.21-.47,.52-1,.96-1.58,1.36-.68,.46-1.37,.91-2.05,1.36-1.14,.75-2.29,1.5-3.43,2.26-.47,.32-.93,.65-1.38,1-.25,.19-.48,.41-.69,.65-.43,.48-.63,1.04-.59,1.68,.04,.61,.15,1.21,.32,1.8,.54,1.9,1.37,3.67,2.38,5.35,1.86,3.11,4.26,5.75,7.06,8.03,2.38,1.94,4.98,3.53,7.73,4.88,.25,.12,.49,.25,.72,.39,.18,.11,.34,.25,.46,.43,.19,.26,.21,.54,.05,.83-.13,.25-.33,.44-.54,.61-.31,.26-.66,.46-1.01,.65-1.56,.85-3.22,1.45-4.93,1.91-.73,.2-1.46,.41-2.19,.62-.51,.15-.98,.37-1.45,.62-.79,.41-1.24,1.06-1.4,1.92-.09,.48-.15,.96-.23,1.43-.22,1.2-.65,1.64-1.83,1.85-.41,.07-.84,.11-1.26,.14-1.05,.06-2.11,.09-3.16,.15-2.39,.13-4.73,.5-7.01,1.25-.96,.32-1.89,.73-2.76,1.23-.93,.53-1.85,1.09-2.77,1.65-1.46,.88-2.94,1.72-4.54,2.34-1.78,.69-3.62,1.1-5.52,1.27-1.6,.15-3.2,.12-4.8-.06-2.39-.27-4.65-.96-6.79-2.06-.99-.51-1.95-1.08-2.91-1.66-.7-.43-1.4-.85-2.11-1.27-1.68-1-3.5-1.64-5.41-2.06-1.73-.38-3.49-.59-5.26-.65-.93-.04-1.85-.07-2.78-.13-.53-.03-1.05-.1-1.56-.23-.72-.19-1.18-.63-1.33-1.36-.08-.41-.15-.83-.22-1.24-.01-.08-.02-.17-.03-.25-.16-1.1-.7-1.91-1.74-2.38-.64-.29-1.29-.52-1.96-.71-1.16-.32-2.32-.6-3.45-1.01-.99-.36-1.96-.78-2.88-1.28-.28-.15-.55-.32-.81-.49-.17-.12-.34-.25-.48-.4-.54-.56-.49-1.07,.12-1.55,.3-.23,.65-.39,.99-.56,2.41-1.18,4.69-2.57,6.82-4.2,3.03-2.34,5.63-5.08,7.64-8.35,1.07-1.75,1.95-3.59,2.52-5.56,.18-.63,.31-1.27,.33-1.92,.03-.65-.19-1.2-.62-1.67-.26-.28-.55-.52-.85-.75-.88-.66-1.79-1.26-2.71-1.86-1.16-.76-2.33-1.52-3.49-2.28-.58-.38-1.14-.79-1.65-1.27-.37-.35-.7-.73-.96-1.17-.55-.92-.59-1.87-.17-2.85,.29-.67,.78-1.14,1.46-1.4,.75-.29,1.52-.32,2.3-.19,.92,.15,1.8,.43,2.67,.75,.89,.32,1.77,.67,2.66,1,.41,.16,.83,.31,1.27,.38,.1,.02,.21,.05,.31,.04,.51-.02,.93-.18,.93-.87,0-.57-.03-1.14-.07-1.71-.21-3.07-.29-6.15-.16-9.23,.08-1.96,.28-3.91,.72-5.83,.61-2.67,1.72-5.09,3.37-7.28,3.06-4.04,7.09-6.59,11.92-7.95,2.64-.74,5.34-.99,8.07-.9,2.89,.09,5.69,.63,8.38,1.67,2.56,.99,4.89,2.37,6.91,4.24,2.54,2.36,4.49,5.12,5.55,8.47,.48,1.51,.78,3.06,.97,4.63,.29,2.43,.3,4.88,.28,7.32Z"/>
      </g>
    </g>
  </g>
</svg>