<?xml version="1.0" encoding="UTF-8"?>
<svg id="Layer_2" data-name="Layer 2" xmlns="http://www.w3.org/2000/svg" viewBox="0 0 135 135">
  <defs>
    <style>
      .cls-1 {
        fill: #010201;
      }

      .cls-2 {
        fill: #7bd568;
      }
    </style>
  </defs>
  <g id="Graphic_Elements" data-name="Graphic Elements">
    <g>
      <path class="cls-2" d="M67.5,0C30.22,0,0,30.22,0,67.5s30.22,67.5,67.5,67.5,67.5-30.22,67.5-67.5S104.78,0,67.5,0Zm30.96,97.36c-1.21,1.99-3.8,2.61-5.78,1.4-15.85-9.69-35.8-11.88-59.3-6.51-2.26,.52-4.52-.9-5.04-3.16-.52-2.26,.89-4.52,3.16-5.04,25.71-5.88,47.77-3.35,65.56,7.52,1.98,1.21,2.61,3.8,1.4,5.79Zm8.26-18.38c-1.53,2.48-4.76,3.25-7.24,1.73-18.14-11.15-45.8-14.38-67.26-7.87-2.78,.84-5.72-.73-6.57-3.51-.84-2.78,.73-5.72,3.51-6.56,24.52-7.44,54.99-3.84,75.83,8.97,2.47,1.52,3.25,4.76,1.73,7.23Zm.71-19.14c-21.76-12.92-57.65-14.11-78.42-7.81-3.34,1.01-6.86-.87-7.87-4.21-1.01-3.34,.87-6.86,4.21-7.88,23.84-7.24,63.48-5.84,88.53,9.03,3,1.78,3.98,5.66,2.21,8.65-1.78,3-5.66,3.99-8.65,2.21Z"/>
      <path class="cls-1" d="M98.46,97.36c-1.21,1.99-3.8,2.61-5.78,1.4-15.85-9.69-35.8-11.88-59.3-6.51-2.26,.52-4.52-.9-5.04-3.16-.52-2.26,.89-4.52,3.16-5.04,25.71-5.88,47.77-3.35,65.56,7.52,1.98,1.21,2.61,3.8,1.4,5.79Z"/>
      <path class="cls-1" d="M106.72,78.98c-1.53,2.48-4.76,3.25-7.24,1.73-18.14-11.15-45.8-14.38-67.26-7.87-2.78,.84-5.72-.73-6.57-3.51-.84-2.78,.73-5.72,3.51-6.56,24.52-7.44,54.99-3.84,75.83,8.97,2.47,1.52,3.25,4.76,1.73,7.23Z"/>
      <path class="cls-1" d="M107.43,59.84c-21.76-12.92-57.65-14.11-78.42-7.81-3.34,1.01-6.86-.87-7.87-4.21-1.01-3.34,.87-6.86,4.21-7.88,23.84-7.24,63.48-5.84,88.53,9.03,3,1.78,3.98,5.66,2.21,8.65-1.78,3-5.66,3.99-8.65,2.21Z"/>
    </g>
  </g>
</svg>