<?xml version="1.0" encoding="UTF-8"?>
<svg id="Layer_2" data-name="Layer 2" xmlns="http://www.w3.org/2000/svg" viewBox="0 0 135 135">
  <defs>
    <style>
      .cls-1 {
        fill: #010201;
      }

      .cls-2 {
        fill: #fff;
      }

      .cls-3 {
        fill: #cb1c54;
      }

      .cls-4 {
        fill: #6abac5;
      }
    </style>
  </defs>
  <g id="Graphic_Elements" data-name="Graphic Elements">
    <g>
      <circle class="cls-1" cx="67.5" cy="67.5" r="67.5"/>
      <g>
        <path class="cls-2" d="M49.48,94.59c.08,.07,.16,.15,.24,.22,.75,.53,1.29,1.29,2,1.86,2.22,1.78,4.72,2.75,7.58,2.93,6.78,.42,12.69-4.68,13.46-11.39,.04-.33,.02-.66,.02-.98,0-20.19,0-40.38,0-60.58q0-1.36,1.36-1.36c3.07,0,6.14,0,9.21,0,.29,0,.59-.05,.85,.13,.02,.02,.03,.03,.05,.04,.15,.15,.19,.35,.23,.54,1.18,5.44,4.04,9.78,8.53,13.06,.28,.2,.52,.46,.78,.68,.2,.17,.39,.33,.59,.5,.72,.41,1.24,1.07,1.87,1.6,2.48,2.07,5.29,3.5,8.42,4.3,.28,.07,.59,.07,.79,.33,.01,.02,.03,.03,.05,.04,.18,.19,.15,.44,.15,.67,0,3.56,0,7.12,0,10.68,0,.81-.11,.86-.93,.86-2.61,0-5.17-.35-7.7-.93-4.36-1-8.38-2.77-12.11-5.22-.19-.13-.4-.4-.61-.31-.26,.12-.13,.46-.13,.7,0,10.02,.04,20.04-.02,30.07-.04,7.01-2.27,13.27-6.86,18.61-4.87,5.67-11.06,8.96-18.49,9.87-5.73,.7-11.16-.34-16.32-2.88-.83-.41-1.63-.89-2.38-1.45-.23-.21-.47-.42-.71-.63-1.78-1.47-3.01-3.37-4.17-5.31-1.78-3-2.93-6.24-3.49-9.68-.32-1.97-.49-3.95-.38-5.94,.35-6.42,2.51-12.14,6.65-17.09,3.47-4.15,7.81-7.05,12.92-8.8,2.13-.73,4.33-1.18,6.59-1.34,.42-.03,.83-.13,1.25-.1,.2,.01,.4,0,.58,.13,.02,.02,.04,.03,.06,.04,.12,.2,.09,.43,.09,.64,0,3.61,0,7.23,0,10.84,0,.13,0,.26,0,.38-.02,.36-.2,.48-.54,.39-.99-.28-2-.41-3.02-.46-1.58-.08-3.14,.14-4.63,.69-4.97,1.83-7.98,5.39-8.61,10.63-.62,5.16,1.42,9.29,5.71,12.27,.36,.25,.73,.48,1.07,.76Z"/>
        <path class="cls-3" d="M40.13,107.18c.19-.05,.3,.1,.43,.18,3.23,1.97,6.71,3.26,10.45,3.86,1.88,.3,3.77,.43,5.67,.33,6.35-.33,12.04-2.44,16.96-6.51,4.73-3.91,7.88-8.85,9.45-14.78,.5-1.87,.77-3.78,.87-5.72,.06-1.11,.05-2.23,.05-3.34,0-9.55,0-19.1,0-28.65v-.65c.25-.07,.36,.12,.5,.21,3.4,2.33,7.08,4.05,11.06,5.15,2.18,.6,4.4,1,6.66,1.2,.95,.08,1.9,.07,2.84,.14,.41,.03,.42,.01,.43-.42,0-.46,0-.91,0-1.37,0-3.23,0-6.46,0-9.7,0-.2,.01-.4,.02-.6,.85,.1,1.69,.28,2.55,.34,.53,.04,1.06,.09,1.59,.07,.26,0,.37,.08,.34,.35-.01,.11,0,.22,0,.33v14.02c0,.09,0,.18,0,.27-.01,.41-.01,.42-.44,.41-1.46,0-2.92-.1-4.37-.29-2.96-.39-5.84-1.11-8.62-2.2-2.66-1.04-5.17-2.36-7.53-3.98-.15-.1-.3-.19-.52-.34v.66c0,10.21,0,20.41,0,30.62,0,5.44-1.41,10.5-4.32,15.11-3.51,5.57-8.37,9.48-14.55,11.73-3.75,1.36-7.64,1.89-11.63,1.59-6.73-.5-12.55-3.07-17.51-7.63-.13-.12-.25-.27-.37-.4Z"/>
        <path class="cls-4" d="M84.21,25.41c-.2,0-.4,.03-.6,.03-3.29,0-6.58,0-9.86,0q-.76,0-.76,.74c0,20.09,0,40.17,0,60.26,0,1.4-.1,2.77-.54,4.1-1.54,4.7-4.7,7.8-9.52,8.9-5.17,1.18-9.56-.4-13.06-4.41-.06-.07-.1-.15-.14-.23,1,.4,2,.8,3.06,1.01,3.37,.67,6.55,.15,9.47-1.65,3.38-2.08,5.37-5.13,6.07-9.02,.13-.74,.15-1.49,.15-2.24,0-20.12,0-40.25,0-60.37,0-.94-.13-.82,.8-.82,4.64,0,9.28,0,13.92,0,.11,0,.22,0,.33,0,.47,0,.48,0,.48,.49,0,1.08-.02,2.15,.19,3.21Z"/>
        <path class="cls-4" d="M59.37,58.42c-2.83,.09-5.61,.54-8.3,1.44-3.89,1.29-7.35,3.32-10.37,6.1-3.96,3.65-6.66,8.07-8.14,13.24-.53,1.84-.83,3.73-.97,5.64-.08,1.15-.11,2.3-.04,3.44,.17,3.19,.83,6.27,2.04,9.23,1.35,3.31,3.25,6.27,5.72,8.86,.05,.05,.08,.12,.12,.18-.56-.24-1.01-.65-1.48-1.02-4.6-3.65-7.85-8.25-9.63-13.86-.62-1.95-1.01-3.95-1.2-5.99-.14-1.48-.15-2.96-.06-4.43,.22-3.4,1.03-6.66,2.43-9.77,1.47-3.25,3.47-6.13,6.01-8.62,2.96-2.9,6.39-5.07,10.3-6.48,2.45-.88,4.97-1.42,7.57-1.61,1.88-.14,3.75-.1,5.63,.13,.25,.03,.4,.08,.4,.38-.02,1.04-.02,2.08-.03,3.12Z"/>
        <path class="cls-3" d="M49.48,94.59c-1.14-.52-2.13-1.26-3.03-2.12-2.25-2.17-3.59-4.81-3.94-7.92-.73-6.52,3.38-12.14,9.09-13.88,2.44-.74,4.88-.77,7.33-.11,.14,.04,.27,.1,.42,.06,.08-.2,.04-.4,.04-.6,0-3.65,0-7.3,0-10.95,0-.2,.02-.4,.03-.6,1.41-.1,2.81,.03,4.2,.19,.22,.02,.28,.13,.27,.32,0,.11,0,.22,0,.33,0,4.84,0,9.68,0,14.51,0,.18,.05,.36-.07,.56-.64-.12-1.26-.31-1.91-.4-3.74-.52-7.11,.35-10.07,2.68-2.6,2.05-4.2,4.74-4.74,8-.57,3.46,.15,6.67,2.14,9.58,.08,.12,.15,.24,.23,.37Z"/>
        <path class="cls-3" d="M93.81,39.74c-1.41-.83-2.64-1.88-3.77-3.05-3.04-3.13-4.96-6.84-5.78-11.13,0-.04,0-.07,0-.11,1.31-.07,2.63,0,3.94-.03,.23,0,.34,.09,.31,.32,0,.09,0,.18,0,.27-.07,3.68,1.02,7.04,2.82,10.2,.64,1.13,1.41,2.17,2.24,3.17,.09,.11,.22,.2,.24,.36Z"/>
        <path class="cls-4" d="M105.47,46.47c-3.74-.8-7.03-2.49-9.89-5.03-.42-.37-.85-.74-1.19-1.2,.14-.01,.24,.07,.35,.13,2.27,1.3,4.69,2.15,7.27,2.57,1,.17,2.02,.27,3.04,.26,.43,0,.44,.01,.44,.42,0,.95-.01,1.89-.02,2.84Z"/>
      </g>
    </g>
  </g>
</svg>