<?xml version="1.0" encoding="UTF-8"?>
<svg id="Layer_2" data-name="Layer 2" xmlns="http://www.w3.org/2000/svg" viewBox="0 0 135 135">
  <defs>
    <style>
      .cls-1 {
        fill: #fff;
      }

      .cls-2 {
        fill: #1ab7ea;
      }
    </style>
  </defs>
  <g id="Graphic_Elements" data-name="Graphic Elements">
    <g>
      <circle class="cls-2" cx="67.5" cy="67.5" r="67.5"/>
      <path class="cls-1" d="M111.11,50.36c-.41,8.86-6.59,20.98-18.56,36.38-12.37,16.08-22.84,24.12-31.4,24.12-5.31,0-9.79-4.89-13.46-14.69-2.45-8.98-4.89-17.95-7.34-26.93-2.72-9.79-5.64-14.69-8.77-14.69-.68,0-3.06,1.43-7.14,4.29l-4.28-5.51c4.49-3.95,8.92-7.89,13.28-11.84,5.99-5.17,10.49-7.9,13.49-8.17,7.08-.68,11.44,4.16,13.07,14.52,1.77,11.18,2.99,18.13,3.68,20.85,2.04,9.28,4.29,13.91,6.74,13.91,1.9,0,4.77-3.01,8.58-9.03,3.81-6.01,5.85-10.59,6.13-13.74,.54-5.19-1.5-7.79-6.13-7.79-2.18,0-4.43,.5-6.74,1.49,4.47-14.65,13.02-21.76,25.63-21.35,9.35,.27,13.76,6.34,13.22,18.19Z"/>
    </g>
  </g>
</svg>