<?xml version="1.0" encoding="UTF-8"?>
<svg id="Layer_2" data-name="Layer 2" xmlns="http://www.w3.org/2000/svg" xmlns:xlink="http://www.w3.org/1999/xlink" viewBox="0 0 130.12 130.12">
  <defs>
    <style>
      .cls-1 {
        fill: #fff;
        fill-rule: evenodd;
      }

      .cls-2 {
        fill: url(#linear-gradient);
      }
    </style>
    <linearGradient id="linear-gradient" x1="65.06" y1="120.66" x2="65.06" y2="-9.45" gradientUnits="userSpaceOnUse">
      <stop offset="0" stop-color="#78cd51"/>
      <stop offset="1" stop-color="#a0fc84"/>
    </linearGradient>
  </defs>
  <g id="Graphic_Elements" data-name="Graphic Elements">
    <g>
      <circle class="cls-2" cx="65.06" cy="65.06" r="65.06"/>
      <g id="WA_Logo" data-name="WA Logo">
        <path class="cls-1" d="M96.35,34.56c-7.79-7.8-18.15-12.1-29.19-12.1-22.75,0-41.26,18.51-41.27,41.26,0,7.27,1.9,14.37,5.51,20.63l-5.86,21.38,21.88-5.74c6.03,3.29,12.82,5.02,19.72,5.02h.02s0,0,0,0c22.75,0,41.26-18.51,41.27-41.26,0-11.02-4.28-21.39-12.08-29.19Zm-29.19,63.48h-.01c-6.16,0-12.19-1.66-17.46-4.78l-1.25-.74-12.98,3.4,3.47-12.65-.82-1.3c-3.43-5.46-5.25-11.77-5.24-18.25,0-18.91,15.4-34.29,34.32-34.29,9.16,0,17.78,3.58,24.25,10.06,6.48,6.48,10.04,15.1,10.04,24.26,0,18.91-15.4,34.29-34.3,34.29Zm18.82-25.68c-1.03-.52-6.1-3.01-7.05-3.35-.95-.34-1.63-.52-2.32,.52-.69,1.03-2.66,3.35-3.27,4.04-.6,.69-1.2,.77-2.23,.26-1.03-.52-4.35-1.6-8.29-5.12-3.07-2.73-5.14-6.11-5.74-7.14-.6-1.03-.06-1.59,.45-2.1,.46-.46,1.03-1.2,1.55-1.81,.52-.6,.69-1.03,1.03-1.72,.34-.69,.17-1.29-.09-1.81-.26-.52-2.32-5.59-3.18-7.65-.84-2.01-1.69-1.74-2.32-1.77-.6-.03-1.29-.04-1.98-.04s-1.8,.26-2.75,1.29c-.95,1.03-3.61,3.53-3.61,8.6s3.7,9.98,4.21,10.66c.52,.69,7.27,11.1,17.62,15.57,2.46,1.06,4.38,1.7,5.88,2.17,2.47,.78,4.72,.67,6.5,.41,1.98-.3,6.1-2.49,6.96-4.9,.86-2.41,.86-4.47,.6-4.9-.26-.43-.95-.69-1.98-1.2Z"/>
      </g>
    </g>
  </g>
</svg>